<svg width="70" height="70" viewBox="0 0 70 70" fill="none" xmlns="http://www.w3.org/2000/svg">
<g clip-path="url(#clip0_45_61)">
<path d="M66.5 16.1H3.5V54.6H66.5V16.1Z" fill="#992CDC"/>
<path d="M3.5 16.1H66.5L64.4 18.2H5.6L3.5 16.1Z" fill="#F1DBFF"/>
<path d="M4.78333 52.5H40.6L43.9333 54.6H3.5L4.78333 52.5Z" fill="#69129E"/>
<path d="M50.6333 52.5H65.2273L66.5 54.6H49.7L50.6333 52.5Z" fill="#69129E"/>
<path d="M3.5 16.1L5.6 18.2V52.5L3.5 54.6V16.1Z" fill="#F1DBFF"/>
<path d="M64.4 18.2L66.5 16.1V54.6L64.4 52.5V18.2Z" fill="#69129E"/>
<path d="M49.35 68.25L53.9 54.6H28.7L49.35 68.25Z" fill="#241D20"/>
<path d="M48.44 65.1L51.8 52.5H29.4L48.44 65.1Z" fill="#69129E"/>
<path d="M47.355 61.6L50.4 50.4H30.1L47.355 61.6Z" fill="#992CDC"/>
<path d="M68.6 14H1.4V16.1H68.6V14Z" fill="#241D20"/>
<path d="M3.5 16.1H1.4V56.7H3.5V16.1Z" fill="#241D20"/>
<path d="M68.6 16.1H66.5V56.7H68.6V16.1Z" fill="#241D20"/>
<path d="M3.5 54.6H32.9L35.7 56.7H3.5V54.6Z" fill="#241D20"/>
<path d="M51.1 54.6H66.5V56.7H50.75L51.1 54.6Z" fill="#241D20"/>
<path d="M21 38.5C22.933 38.5 24.5 36.933 24.5 35C24.5 33.067 22.933 31.5 21 31.5C19.067 31.5 17.5 33.067 17.5 35C17.5 36.933 19.067 38.5 21 38.5Z" fill="url(#paint0_radial_45_61)"/>
<path d="M35 38.5C36.933 38.5 38.5 36.933 38.5 35C38.5 33.067 36.933 31.5 35 31.5C33.067 31.5 31.5 33.067 31.5 35C31.5 36.933 33.067 38.5 35 38.5Z" fill="url(#paint1_radial_45_61)"/>
<path d="M49 38.5C50.933 38.5 52.5 36.933 52.5 35C52.5 33.067 50.933 31.5 49 31.5C47.067 31.5 45.5 33.067 45.5 35C45.5 36.933 47.067 38.5 49 38.5Z" fill="url(#paint2_radial_45_61)"/>
</g>
<defs>
<radialGradient id="paint0_radial_45_61" cx="0" cy="0" r="1" gradientUnits="userSpaceOnUse" gradientTransform="translate(21 35) rotate(90) scale(3.5)">
<stop stop-color="#C0FBFF"/>
<stop offset="0.166667" stop-color="#C9F7FA"/>
<stop offset="0.333333" stop-color="#A6FAFF"/>
<stop offset="0.5" stop-color="#87F8FF"/>
<stop offset="0.666667" stop-color="#69F6FF"/>
<stop offset="0.833333" stop-color="#3EF3FF"/>
<stop offset="1" stop-color="#00F0FF"/>
</radialGradient>
<radialGradient id="paint1_radial_45_61" cx="0" cy="0" r="1" gradientUnits="userSpaceOnUse" gradientTransform="translate(35 35) rotate(90) scale(3.5)">
<stop stop-color="#C0FBFF"/>
<stop offset="0.166667" stop-color="#C9F7FA"/>
<stop offset="0.333333" stop-color="#A6FAFF"/>
<stop offset="0.5" stop-color="#87F8FF"/>
<stop offset="0.666667" stop-color="#69F6FF"/>
<stop offset="0.833333" stop-color="#3EF3FF"/>
<stop offset="1" stop-color="#00F0FF"/>
</radialGradient>
<radialGradient id="paint2_radial_45_61" cx="0" cy="0" r="1" gradientUnits="userSpaceOnUse" gradientTransform="translate(49 35) rotate(90) scale(3.5)">
<stop stop-color="#C0FBFF"/>
<stop offset="0.166667" stop-color="#C9F7FA"/>
<stop offset="0.333333" stop-color="#A6FAFF"/>
<stop offset="0.5" stop-color="#87F8FF"/>
<stop offset="0.666667" stop-color="#69F6FF"/>
<stop offset="0.833333" stop-color="#3EF3FF"/>
<stop offset="1" stop-color="#00F0FF"/>
</radialGradient>
<clipPath id="clip0_45_61">
<rect width="70" height="70" fill="white"/>
</clipPath>
</defs>
</svg>
