<svg width="70" height="70" viewBox="0 0 70 70" fill="none" xmlns="http://www.w3.org/2000/svg">
<g clip-path="url(#clip0_45_80)">
<path d="M52.5 14.7H18.2V61.6H52.5V14.7Z" fill="white"/>
<path d="M23.8 9.1H11.9V10.5H23.8V9.1Z" fill="#57414E"/>
<path d="M58.8 9.1H47.6V10.5H58.8V9.1Z" fill="#57414E"/>
<path d="M54.6 12.6H47.6V14.7H54.6V12.6Z" fill="#57414E"/>
<path d="M23.8 12.6H16.1V14.7H23.8V12.6Z" fill="#57414E"/>
<path d="M23.8 10.5H14V12.6H23.8V10.5Z" fill="#B97460"/>
<path d="M56.7 10.5H47.6V12.6H56.7V10.5Z" fill="#B97460"/>
<path d="M32.2 9.1H23.8V10.5H32.2V9.1Z" fill="#738794"/>
<path d="M47.6 9.1H38.5V10.5H47.6V9.1Z" fill="#738794"/>
<path d="M40.6 2.1H30.1V4.2H40.6V2.1Z" fill="#738794"/>
<path d="M38.5 4.2H32.2V6.3H38.5V4.2Z" fill="#E0EDED"/>
<path d="M32.2 4.2H30.1V9.1H32.2V4.2Z" fill="#738794"/>
<path d="M40.6 4.2H38.5V9.1H40.6V4.2Z" fill="#738794"/>
<path d="M36.4 6.3H34.3V8.4H36.4V6.3Z" fill="#738794"/>
<path d="M34.3 6.3H32.2V12.6H34.3V6.3Z" fill="#C7DBDE"/>
<path d="M38.5 6.3H36.4V12.6H38.5V6.3Z" fill="#C7DBDE"/>
<path d="M36.4 8.4H34.3V12.6H36.4V8.4Z" fill="#C7DBDE"/>
<path d="M45.5 12.6H25.2V14.7H45.5V12.6Z" fill="#C7DBDE"/>
<path d="M45.5 14.7H25.2V16.8H45.5V14.7Z" fill="#A8B8C2"/>
<path d="M32.2 10.5H25.2V12.6H32.2V10.5Z" fill="#E0EDED"/>
<path d="M45.5 10.5H38.5V12.6H45.5V10.5Z" fill="#E0EDED"/>
<path d="M47.6 10.5H45.5V18.2H47.6V10.5Z" fill="#738794"/>
<path d="M25.2 10.5H23.8V18.2H25.2V10.5Z" fill="#738794"/>
<path d="M25.2 16.8H45.5V18.2H25.2V16.8Z" fill="#738794"/>
<path d="M11.9 10.5H14V65.8741L11.9 67.9V10.5Z" fill="#57414E"/>
<path d="M56.7 10.5L58.8 9.1V67.9L56.7 65.8741V10.5Z" fill="#4B3A44"/>
<path d="M13.9391 65.8H56.7609L58.8 67.9H11.9L13.9391 65.8Z" fill="#4B3A44"/>
<path d="M14 12.6H16.1V63.7797L14 65.8V12.6Z" fill="#B97460"/>
<path d="M54.6 12.6L56.7 10.5V65.8L54.6 63.7797V12.6Z" fill="#9B5044"/>
<path d="M16.0334 63.7H54.6666L56.7 65.8H14L16.0334 63.7Z" fill="#9B5044"/>
<path d="M17.4509 61.6H52.5737L54.6 63.7H16.1L17.4509 61.6Z" fill="#4B3A44"/>
<path d="M16.1 14.7H18.2L17.85 61.6863L16.1 63.7V14.7Z" fill="#57414E"/>
<path d="M52.5 14.7H54.6V63.7L52.5 61.6863V14.7Z" fill="#4B3A44"/>
<path d="M42.7 0H40.6V9.1H42.7V0Z" fill="#241D20"/>
<path d="M30.1 2.1H28V9.1H30.1V2.1Z" fill="#241D20"/>
<path d="M60.9 7H42.7V9.1H60.9V7Z" fill="#241D20"/>
<path d="M28 7H9.8V9.1H28V7Z" fill="#241D20"/>
<path d="M60.9 67.9H11.9V70H60.9V67.9Z" fill="#241D20"/>
<path d="M40.6 0H28V2.1H40.6V0Z" fill="#241D20"/>
<path d="M11.9 9.1H9.8V70H11.9V9.1Z" fill="#241D20"/>
<path d="M60.9 9.1H58.8V67.9H60.9V9.1Z" fill="#241D20"/>
<path d="M19.6 35C19.6 27.268 25.868 21 33.6 21H37.1C44.832 21 51.1 27.268 51.1 35V46.2H19.6V35Z" fill="#CA956E"/>
<path d="M35.35 53.2C42.8887 53.2 49 46.932 49 39.2C49 31.468 42.8887 25.2 35.35 25.2C27.8113 25.2 21.7 31.468 21.7 39.2C21.7 46.932 27.8113 53.2 35.35 53.2Z" fill="#FFE8D3"/>
<path d="M33.6 37.1H25.2V42.7H33.6V37.1Z" stroke="#271F1F" stroke-width="2"/>
<path d="M45.5 37.1H37.1V42.7H45.5V37.1Z" stroke="#271F1F" stroke-width="2"/>
<path d="M36.4 39.9H34.3V41.3H36.4V39.9Z" fill="#271F1F"/>
<path d="M40.25 41.3C40.8299 41.3 41.3 40.8299 41.3 40.25C41.3 39.6701 40.8299 39.2 40.25 39.2C39.6701 39.2 39.2 39.6701 39.2 40.25C39.2 40.8299 39.6701 41.3 40.25 41.3Z" fill="#121212"/>
<path d="M28.35 41.3C28.9299 41.3 29.4 40.8299 29.4 40.25C29.4 39.6701 28.9299 39.2 28.35 39.2C27.7701 39.2 27.3 39.6701 27.3 40.25C27.3 40.8299 27.7701 41.3 28.35 41.3Z" fill="#121212"/>
<path d="M25.1855 38.3674L21.2168 37.2803L20.8623 38.6326L24.831 39.7197L25.1855 38.3674Z" fill="#271F1F"/>
<path d="M45.6218 38.187L49.5905 37.1L49.9449 38.4523L45.9762 39.5393L45.6218 38.187Z" fill="#271F1F"/>
<path d="M20.3 35.7C24.8949 33.524 31.9068 26.7466 34.3 24.14L29.9923 23.8L24.6077 26.52L21.377 30.94L20.3 35.7Z" fill="#CA956E" stroke="#CA956E"/>
<path d="M50.4 35.7C45.8051 33.396 38.7932 26.22 36.4 23.46L40.7077 23.1L46.0923 25.98L49.3231 30.66L50.4 35.7Z" fill="#CA956E" stroke="#CA956E"/>
<path d="M30.1 46.2C30.5667 47.2979 33.46 49.1644 35.7 47.8469" stroke="#FC9EBA" stroke-width="2"/>
</g>
<defs>
<clipPath id="clip0_45_80">
<rect width="70" height="70" fill="white"/>
</clipPath>
</defs>
</svg>
