<svg width="70" height="70" viewBox="0 0 70 70" fill="none" xmlns="http://www.w3.org/2000/svg">
<path d="M2.06728 29.9911C1.71254 27.0719 3.99089 24.5 6.93149 24.5H50.3121C52.7542 24.5 54.8236 26.2983 55.1642 28.7166L58.7136 53.9166C59.1289 56.8655 56.8395 59.5 53.8615 59.5H9.99376C7.51618 59.5 5.42846 57.6506 5.12958 55.1911L2.06728 29.9911Z" fill="#241D20"/>
<path d="M5.6 25.2C5.6 22.4938 7.7938 20.3 10.5 20.3H65.1V54.6C65.1 57.3062 62.9062 59.5 60.2 59.5H10.5C7.7938 59.5 5.6 57.3062 5.6 54.6V25.2Z" fill="#241D20"/>
<path d="M39.2699 14.0702C39.6687 13.5827 40.2653 13.3 40.8951 13.3H60.2C62.9062 13.3 65.1 15.4938 65.1 18.2V21H33.6L39.2699 14.0702Z" fill="#241D20"/>
<path d="M7 25.9C7 23.967 8.56702 22.4 10.5 22.4H63V53.9C63 55.833 61.433 57.4 59.5 57.4H10.5C8.56702 57.4 7 55.833 7 53.9V25.9Z" fill="#002DCE"/>
<path d="M3.68221 29.8656C3.40049 27.7664 5.03314 25.9 7.15113 25.9H53.0023C54.7276 25.9 56.1956 27.1573 56.4607 28.862L60.2719 53.362C60.6019 55.484 58.9609 57.4 56.8135 57.4H10.4392C8.68616 57.4 7.20349 56.103 6.97033 54.3656L3.68221 29.8656Z" fill="#0038FF"/>
<path d="M39.9695 16.1881C40.368 15.69 40.9713 15.4 41.6093 15.4H59.5C61.433 15.4 63 16.967 63 18.9V22.4H35L39.9695 16.1881Z" fill="#002DCE"/>
</svg>
