<svg width="70" height="70" viewBox="0 0 70 70" fill="none" xmlns="http://www.w3.org/2000/svg">
<g clip-path="url(#clip0_45_11)">
<path d="M27.5899 14.7H43.1056L43.8073 14H26.8899L27.5899 14.7Z" fill="#FFFAE9" stroke="#FFFAE9" stroke-width="2"/>
<path d="M27.5899 37.1H43.1056L43.8073 36.4H26.8899L27.5899 37.1Z" fill="#FFFAE9" stroke="#FFFAE9" stroke-width="2"/>
<path d="M49.9899 37.1H65.5056L66.2073 36.4H49.2899L49.9899 37.1Z" fill="#FFFAE9" stroke="#FFFAE9" stroke-width="2"/>
<path d="M5.18994 37.1H20.7056L21.4073 36.4H4.48994L5.18994 37.1Z" fill="#FFFAE9" stroke="#FFFAE9" stroke-width="2"/>
<path d="M43.4 15.4H27.3V31.5H43.4V15.4Z" fill="#FEC601"/>
<path d="M43.4 37.8H27.3V53.9H43.4V37.8Z" fill="#FEC601"/>
<path d="M65.8 37.8H49.7V53.9H65.8V37.8Z" fill="#FEC601"/>
<path d="M21 37.8H4.9V53.9H21V37.8Z" fill="#FEC601"/>
<path d="M27.3 31.5H43.4L45.5 33.6H25.2L27.3 31.5Z" fill="#FE6B01"/>
<path d="M27.3 53.9H43.4L45.5 56H25.2L27.3 53.9Z" fill="#FE6B01"/>
<path d="M49.7 53.9H65.8L67.9 56H47.6L49.7 53.9Z" fill="#FE6B01"/>
<path d="M4.9 53.9H21L23.1 56H2.8L4.9 53.9Z" fill="#FE6B01"/>
<path d="M25.2 13.3L27.3 15.4V31.5L25.2 33.6V13.3Z" fill="#FFFAE9"/>
<path d="M25.2 35.7L27.3 37.8V53.9L25.2 56V35.7Z" fill="#FFFAE9"/>
<path d="M47.6 35.7L49.7 37.8V53.9L47.6 56V35.7Z" fill="#FFFAE9"/>
<path d="M2.8 35.7L4.9 37.8V53.9L2.8 56V35.7Z" fill="#FFFAE9"/>
<path d="M43.4 15.4L45.5 13.3V33.6L43.4 31.5V15.4Z" fill="#FE6B01"/>
<path d="M43.4 37.8L45.5 35.7V56L43.4 53.9V37.8Z" fill="#FE6B01"/>
<path d="M65.8 37.8L67.9 35.7V56L65.8 53.9V37.8Z" fill="#FE6B01"/>
<path d="M21 37.8L23.1 35.7V56L21 53.9V37.8Z" fill="#FE6B01"/>
<path d="M31.15 25.2C31.7299 25.2 32.2 24.7299 32.2 24.15C32.2 23.5701 31.7299 23.1 31.15 23.1C30.5701 23.1 30.1 23.5701 30.1 24.15C30.1 24.7299 30.5701 25.2 31.15 25.2Z" fill="#241D20"/>
<path d="M31.15 47.6C31.7299 47.6 32.2 47.1299 32.2 46.55C32.2 45.9701 31.7299 45.5 31.15 45.5C30.5701 45.5 30.1 45.9701 30.1 46.55C30.1 47.1299 30.5701 47.6 31.15 47.6Z" fill="#241D20"/>
<path d="M53.55 47.6C54.1299 47.6 54.6 47.1299 54.6 46.55C54.6 45.9701 54.1299 45.5 53.55 45.5C52.9701 45.5 52.5 45.9701 52.5 46.55C52.5 47.1299 52.9701 47.6 53.55 47.6Z" fill="#241D20"/>
<path d="M8.75 47.6C9.3299 47.6 9.8 47.1299 9.8 46.55C9.8 45.9701 9.3299 45.5 8.75 45.5C8.1701 45.5 7.7 45.9701 7.7 46.55C7.7 47.1299 8.1701 47.6 8.75 47.6Z" fill="#241D20"/>
<path d="M36.7069 25.2C37.3106 25.2 37.8192 25.7039 37.6135 26.2715C37.4904 26.6112 37.3099 26.9199 37.0824 27.1799C36.8549 27.4399 36.5848 27.6461 36.2876 27.7868C35.9904 27.9275 35.6717 28 35.35 28C35.0283 28 34.7096 27.9275 34.4124 27.7868C34.1152 27.6461 33.8451 27.4399 33.6176 27.1799C33.3901 26.9199 33.2096 26.6112 33.0865 26.2715C32.8808 25.7039 33.3894 25.2 33.9931 25.2H35.35H36.7069Z" fill="#241D20"/>
<path d="M36.7069 47.6C37.3106 47.6 37.8192 48.1039 37.6135 48.6715C37.4904 49.0112 37.3099 49.3199 37.0824 49.5799C36.8549 49.8399 36.5848 50.0462 36.2876 50.1869C35.9904 50.3276 35.6717 50.4 35.35 50.4C35.0283 50.4 34.7096 50.3276 34.4124 50.1869C34.1152 50.0462 33.8451 49.8399 33.6176 49.5799C33.3901 49.3199 33.2096 49.0112 33.0865 48.6715C32.8808 48.1039 33.3894 47.6 33.9931 47.6H35.35H36.7069Z" fill="#241D20"/>
<path d="M59.1069 47.6C59.7106 47.6 60.2192 48.1039 60.0135 48.6715C59.8904 49.0112 59.7099 49.3199 59.4824 49.5799C59.2549 49.8399 58.9848 50.0462 58.6876 50.1869C58.3904 50.3276 58.0717 50.4 57.75 50.4C57.4283 50.4 57.1096 50.3276 56.8124 50.1869C56.5152 50.0462 56.2451 49.8399 56.0176 49.5799C55.7901 49.3199 55.6096 49.0112 55.4865 48.6715C55.2808 48.1039 55.7894 47.6 56.3931 47.6H57.75H59.1069Z" fill="#241D20"/>
<path d="M14.3069 47.6C14.9106 47.6 15.4192 48.1039 15.2135 48.6715C15.0904 49.0112 14.9099 49.3199 14.6824 49.5799C14.4549 49.8399 14.1848 50.0462 13.8876 50.1869C13.5904 50.3276 13.2717 50.4 12.95 50.4C12.6283 50.4 12.3096 50.3276 12.0124 50.1869C11.7152 50.0462 11.4451 49.8399 11.2176 49.5799C10.9901 49.3199 10.8096 49.0112 10.6865 48.6715C10.4808 48.1039 10.9894 47.6 11.5931 47.6H12.95H14.3069Z" fill="#241D20"/>
<path d="M39.55 25.2C40.1299 25.2 40.6 24.7299 40.6 24.15C40.6 23.5701 40.1299 23.1 39.55 23.1C38.9701 23.1 38.5 23.5701 38.5 24.15C38.5 24.7299 38.9701 25.2 39.55 25.2Z" fill="#241D20"/>
<path d="M39.55 47.6C40.1299 47.6 40.6 47.1299 40.6 46.55C40.6 45.9701 40.1299 45.5 39.55 45.5C38.9701 45.5 38.5 45.9701 38.5 46.55C38.5 47.1299 38.9701 47.6 39.55 47.6Z" fill="#241D20"/>
<path d="M61.95 47.6C62.5299 47.6 63 47.1299 63 46.55C63 45.9701 62.5299 45.5 61.95 45.5C61.3701 45.5 60.9 45.9701 60.9 46.55C60.9 47.1299 61.3701 47.6 61.95 47.6Z" fill="#241D20"/>
<path d="M17.15 47.6C17.7299 47.6 18.2 47.1299 18.2 46.55C18.2 45.9701 17.7299 45.5 17.15 45.5C16.5701 45.5 16.1 45.9701 16.1 46.55C16.1 47.1299 16.5701 47.6 17.15 47.6Z" fill="#241D20"/>
<path d="M35.35 26.6C35.9299 26.6 36.4404 27.1261 36.0925 27.5899C35.8956 27.8525 35.6285 28 35.35 28C35.0715 28 34.8044 27.8525 34.6075 27.5899C34.2596 27.1261 34.7701 26.6 35.35 26.6Z" fill="#EF4A7B"/>
<path d="M35.35 49C35.9299 49 36.4404 49.526 36.0925 49.9899C35.8956 50.2525 35.6285 50.4 35.35 50.4C35.0715 50.4 34.8044 50.2525 34.6075 49.9899C34.2596 49.526 34.7701 49 35.35 49Z" fill="#EF4A7B"/>
<path d="M57.75 49C58.3299 49 58.8404 49.526 58.4925 49.9899C58.2956 50.2525 58.0285 50.4 57.75 50.4C57.4715 50.4 57.2044 50.2525 57.0075 49.9899C56.6596 49.526 57.1701 49 57.75 49Z" fill="#EF4A7B"/>
<path d="M12.95 49C13.5299 49 14.0404 49.526 13.6925 49.9899C13.4956 50.2525 13.2285 50.4 12.95 50.4C12.6715 50.4 12.4044 50.2525 12.2075 49.9899C11.8596 49.526 12.3701 49 12.95 49Z" fill="#EF4A7B"/>
<path d="M23.1 13.3C23.1 12.1402 24.0402 11.2 25.2 11.2H45.5C46.6598 11.2 47.6 12.1402 47.6 13.3H23.1Z" fill="#241D20"/>
<path d="M23.1 33.6H47.6V35.7H23.1V33.6Z" fill="#241D20"/>
<path d="M45.5 33.6H67.9C69.0598 33.6 70 34.5402 70 35.7H45.5V33.6Z" fill="#241D20"/>
<path d="M0.699997 35.7C0.699997 34.5402 1.6402 33.6 2.8 33.6H25.2V35.7H0.699997Z" fill="#241D20"/>
<path d="M23.1 56H47.6V58.1H23.1V56Z" fill="#241D20"/>
<path d="M45.5 56H70C70 57.1598 69.0598 58.1 67.9 58.1H45.5V56Z" fill="#241D20"/>
<path d="M0.699997 56H25.2V58.1H2.8C1.6402 58.1 0.699997 57.1598 0.699997 56Z" fill="#241D20"/>
<path d="M25.2 13.3H23.1V33.6H25.2V13.3Z" fill="#241D20"/>
<path d="M25.2 35.7H23.1V56H25.2V35.7Z" fill="#241D20"/>
<path d="M47.6 35.7H45.5V56H47.6V35.7Z" fill="#241D20"/>
<path d="M47.6 13.3H45.5V33.6H47.6V13.3Z" fill="#241D20"/>
<path d="M2.8 35.7H0.699997V56H2.8V35.7Z" fill="#241D20"/>
<path d="M70 35.7H67.9V56H70V35.7Z" fill="#241D20"/>
</g>
<defs>
<clipPath id="clip0_45_11">
<rect width="70" height="70" fill="white"/>
</clipPath>
</defs>
</svg>
